<svg width="605" height="472" viewBox="0 0 605 472" fill="none" xmlns="http://www.w3.org/2000/svg">
<g filter="url(#filter0_d)">
<path d="M115.14 327.991L490.198 327.668C495.848 327.663 500.56 322.943 500.565 316.969L500.773 75.8211C500.778 69.8474 496.074 65.1354 490.425 65.1403L115.367 65.4635C109.717 65.4684 105.005 70.1885 105 76.1621L104.792 317.31C104.787 323.126 109.49 327.996 115.14 327.991Z" fill="#191B26"/>
<path fill-rule="evenodd" clip-rule="evenodd" d="M446.086 297.73C435.138 291.462 428.419 279.697 428.43 266.984L428.552 125.422C428.563 112.71 435.302 101.09 446.261 94.646L495.095 66.2731C493.219 64.5483 489.631 64.0048 486.815 64.0072L115.651 64.3275C109.861 64.3325 105.006 68.888 105.001 74.5379L104.941 144.534L128.557 158.325C134.031 161.459 137.469 167.42 137.463 173.698L137.424 219.211C137.418 225.646 133.971 231.456 128.491 234.599L104.852 248.274L104.792 317.799C104.787 323.449 109.634 327.996 115.423 327.991L486.587 327.671C489.247 327.669 492.423 327.531 494.302 325.96C478.533 316.083 462.202 307.049 446.086 297.73Z" fill="url(#paint0_linear)"/>
<path d="M179.185 104.134C179.704 104.134 180.124 103.712 180.125 103.192C180.125 102.672 179.705 102.251 179.187 102.251C178.668 102.252 178.247 102.674 178.247 103.194C178.246 103.714 178.666 104.135 179.185 104.134Z" fill="white"/>
<path d="M196.557 104.119C197.076 104.119 197.497 103.697 197.497 103.177C197.497 102.657 197.077 102.236 196.559 102.236C196.04 102.237 195.619 102.659 195.619 103.178C195.618 103.698 196.038 104.12 196.557 104.119Z" fill="white"/>
<path d="M212.67 104.106C213.189 104.105 213.609 103.683 213.61 103.163C213.61 102.644 213.19 102.222 212.671 102.223C212.153 102.223 211.732 102.645 211.732 103.165C211.731 103.685 212.151 104.106 212.67 104.106Z" fill="white"/>
<path d="M178.889 86.5563C179.407 86.5559 179.828 86.134 179.829 85.6141C179.829 85.0942 179.409 84.6731 178.89 84.6735C178.372 84.674 177.951 85.0958 177.95 85.6157C177.95 86.1357 178.37 86.5568 178.889 86.5563Z" fill="white"/>
<path d="M196.254 86.6962C196.772 86.6958 197.193 86.2739 197.194 85.754C197.194 85.2341 196.774 84.813 196.255 84.8134C195.737 84.8138 195.316 85.2357 195.316 85.7556C195.315 86.2756 195.735 86.6967 196.254 86.6962Z" fill="white"/>
<path d="M212.373 86.5273C212.892 86.5268 213.312 86.105 213.313 85.5851C213.313 85.0651 212.893 84.644 212.375 84.6445C211.856 84.6449 211.435 85.0668 211.435 85.5867C211.434 86.1066 211.854 86.5277 212.373 86.5273Z" fill="white"/>
<path d="M179.17 121.558C179.689 121.558 180.109 121.136 180.11 120.616C180.11 120.096 179.69 119.675 179.171 119.675C178.653 119.676 178.232 120.098 178.232 120.617C178.231 121.137 178.651 121.558 179.17 121.558Z" fill="white"/>
<path d="M196.542 121.543C197.061 121.542 197.481 121.121 197.482 120.601C197.482 120.081 197.062 119.66 196.544 119.66C196.025 119.661 195.604 120.082 195.604 120.602C195.603 121.122 196.023 121.543 196.542 121.543Z" fill="white"/>
<path d="M212.655 121.529C213.173 121.528 213.594 121.106 213.595 120.587C213.595 120.067 213.175 119.645 212.656 119.646C212.138 119.646 211.717 120.068 211.716 120.588C211.716 121.108 212.136 121.529 212.655 121.529Z" fill="white"/>
<path d="M179.155 138.977C179.673 138.977 180.094 138.555 180.095 138.035C180.095 137.515 179.675 137.094 179.156 137.094C178.638 137.095 178.217 137.517 178.216 138.037C178.216 138.557 178.636 138.978 179.155 138.977Z" fill="white"/>
<path d="M196.527 138.962C197.046 138.961 197.467 138.54 197.467 138.02C197.468 137.5 197.048 137.079 196.529 137.079C196.01 137.079 195.589 137.501 195.589 138.021C195.589 138.541 196.009 138.962 196.527 138.962Z" fill="white"/>
<path d="M212.64 138.949C213.158 138.948 213.579 138.526 213.579 138.006C213.58 137.487 213.16 137.065 212.641 137.066C212.123 137.066 211.702 137.488 211.701 138.008C211.701 138.528 212.121 138.949 212.64 138.949Z" fill="white"/>
<path d="M179.14 156.397C179.658 156.396 180.079 155.974 180.079 155.454C180.08 154.935 179.66 154.513 179.141 154.514C178.623 154.514 178.202 154.936 178.201 155.456C178.201 155.976 178.621 156.397 179.14 156.397Z" fill="white"/>
<path d="M196.512 156.537C197.03 156.536 197.451 156.114 197.452 155.594C197.452 155.074 197.032 154.653 196.513 154.654C195.995 154.654 195.574 155.076 195.573 155.596C195.573 156.116 195.993 156.537 196.512 156.537Z" fill="white"/>
<path d="M212.624 156.368C213.143 156.367 213.564 155.946 213.564 155.426C213.565 154.906 213.145 154.485 212.626 154.485C212.107 154.485 211.687 154.907 211.686 155.427C211.686 155.947 212.106 156.368 212.624 156.368Z" fill="white"/>
<path d="M179.187 99.5793C179.706 99.5788 180.126 99.157 180.127 98.6371C180.127 98.1171 179.707 97.696 179.189 97.6965C178.67 97.6969 178.249 98.1188 178.249 98.6387C178.248 99.1586 178.668 99.5797 179.187 99.5793Z" fill="white"/>
<path d="M196.559 99.7231C197.078 99.7226 197.498 99.3008 197.499 98.7809C197.499 98.2609 197.079 97.8398 196.561 97.8403C196.042 97.8407 195.621 98.2626 195.621 98.7825C195.62 99.3024 196.04 99.7235 196.559 99.7231Z" fill="white"/>
<path d="M212.676 99.5505C213.194 99.55 213.615 99.1282 213.616 98.6083C213.616 98.0883 213.196 97.6672 212.677 97.6676C212.159 97.6681 211.738 98.0899 211.737 98.6099C211.737 99.1298 212.157 99.5509 212.676 99.5505Z" fill="white"/>
<path d="M178.894 82.1603C179.413 82.1599 179.833 81.7381 179.834 81.2181C179.834 80.6982 179.414 80.2771 178.896 80.2775C178.377 80.278 177.956 80.6998 177.956 81.2197C177.955 81.7397 178.375 82.1608 178.894 82.1603Z" fill="white"/>
<path d="M196.26 82.1452C196.779 82.1448 197.2 81.7229 197.2 81.203C197.201 80.6831 196.78 80.2619 196.262 80.2624C195.743 80.2628 195.322 80.6847 195.322 81.2046C195.321 81.7245 195.742 82.1457 196.26 82.1452Z" fill="white"/>
<path d="M212.379 82.1313C212.897 82.1308 213.318 81.709 213.319 81.1891C213.319 80.6691 212.899 80.248 212.38 80.2485C211.862 80.2489 211.441 80.6708 211.441 81.1907C211.44 81.7106 211.86 82.1317 212.379 82.1313Z" fill="white"/>
<path d="M179.172 116.999C179.69 116.999 180.111 116.577 180.112 116.057C180.112 115.537 179.692 115.116 179.173 115.116C178.655 115.117 178.234 115.538 178.234 116.058C178.233 116.578 178.653 116.999 179.172 116.999Z" fill="white"/>
<path d="M196.544 117.147C197.063 117.146 197.483 116.725 197.484 116.205C197.484 115.685 197.064 115.264 196.546 115.264C196.027 115.265 195.606 115.686 195.606 116.206C195.605 116.726 196.025 117.147 196.544 117.147Z" fill="white"/>
<path d="M212.661 116.97C213.179 116.969 213.6 116.547 213.6 116.027C213.601 115.508 213.181 115.086 212.662 115.087C212.144 115.087 211.723 115.509 211.722 116.029C211.722 116.549 212.142 116.97 212.661 116.97Z" fill="white"/>
<path d="M179.157 134.581C179.675 134.581 180.096 134.159 180.097 133.639C180.097 133.119 179.677 132.698 179.158 132.698C178.64 132.699 178.219 133.12 178.218 133.64C178.218 134.16 178.638 134.581 179.157 134.581Z" fill="white"/>
<path d="M196.529 134.566C197.048 134.566 197.469 134.144 197.469 133.624C197.47 133.104 197.05 132.683 196.531 132.683C196.012 132.684 195.591 133.106 195.591 133.626C195.591 134.145 196.011 134.567 196.529 134.566Z" fill="white"/>
<path d="M212.646 134.553C213.165 134.552 213.585 134.13 213.586 133.61C213.586 133.091 213.166 132.669 212.648 132.67C212.129 132.67 211.708 133.092 211.708 133.612C211.707 134.132 212.127 134.553 212.646 134.553Z" fill="white"/>
<path d="M179.142 151.999C179.661 151.999 180.081 151.577 180.082 151.057C180.082 150.537 179.662 150.116 179.144 150.116C178.625 150.117 178.204 150.538 178.204 151.058C178.203 151.578 178.623 151.999 179.142 151.999Z" fill="white"/>
<path d="M196.514 151.983C197.032 151.983 197.453 151.561 197.454 151.041C197.454 150.521 197.034 150.1 196.515 150.101C195.997 150.101 195.576 150.523 195.575 151.043C195.575 151.563 195.995 151.984 196.514 151.983Z" fill="white"/>
<path d="M212.631 151.97C213.149 151.97 213.57 151.548 213.571 151.028C213.571 150.508 213.151 150.087 212.632 150.088C212.114 150.088 211.693 150.51 211.693 151.03C211.692 151.55 212.112 151.971 212.631 151.97Z" fill="white"/>
<path d="M179.041 272.059C179.56 272.058 179.98 271.636 179.981 271.116C179.981 270.596 179.561 270.175 179.043 270.176C178.524 270.176 178.103 270.598 178.103 271.118C178.102 271.638 178.522 272.059 179.041 272.059Z" fill="white"/>
<path d="M196.412 272.044C196.93 272.043 197.351 271.621 197.351 271.101C197.352 270.581 196.932 270.16 196.413 270.161C195.895 270.161 195.474 270.583 195.473 271.103C195.473 271.623 195.893 272.044 196.412 272.044Z" fill="white"/>
<path d="M212.526 272.03C213.044 272.03 213.465 271.608 213.466 271.088C213.466 270.568 213.046 270.147 212.527 270.147C212.009 270.148 211.588 270.569 211.588 271.089C211.587 271.609 212.007 272.03 212.526 272.03Z" fill="white"/>
<path d="M178.744 254.483C179.263 254.482 179.684 254.06 179.684 253.54C179.684 253.02 179.264 252.599 178.746 252.6C178.227 252.6 177.806 253.022 177.806 253.542C177.805 254.062 178.225 254.483 178.744 254.483Z" fill="white"/>
<path d="M196.113 254.624C196.631 254.624 197.052 254.202 197.053 253.682C197.053 253.162 196.633 252.741 196.114 252.742C195.596 252.742 195.175 253.164 195.174 253.684C195.174 254.204 195.594 254.625 196.113 254.624Z" fill="white"/>
<path d="M212.229 254.453C212.748 254.453 213.168 254.031 213.169 253.511C213.169 252.991 212.749 252.57 212.231 252.57C211.712 252.571 211.291 252.993 211.291 253.513C211.29 254.033 211.71 254.454 212.229 254.453Z" fill="white"/>
<path d="M179.026 289.484C179.544 289.483 179.965 289.061 179.966 288.541C179.966 288.021 179.546 287.6 179.027 287.601C178.509 287.601 178.088 288.023 178.088 288.543C178.087 289.063 178.507 289.484 179.026 289.484Z" fill="white"/>
<path d="M196.396 289.469C196.915 289.469 197.335 289.047 197.336 288.527C197.336 288.007 196.916 287.586 196.398 287.586C195.879 287.587 195.458 288.008 195.458 288.528C195.457 289.048 195.877 289.469 196.396 289.469Z" fill="white"/>
<path d="M212.511 289.455C213.029 289.454 213.45 289.032 213.451 288.513C213.451 287.993 213.031 287.571 212.512 287.572C211.994 287.572 211.573 287.994 211.572 288.514C211.572 289.034 211.992 289.455 212.511 289.455Z" fill="white"/>
<path d="M179.011 306.903C179.529 306.903 179.95 306.481 179.951 305.961C179.951 305.441 179.531 305.02 179.012 305.02C178.494 305.021 178.073 305.443 178.072 305.963C178.072 306.483 178.492 306.904 179.011 306.903Z" fill="white"/>
<path d="M196.381 306.888C196.9 306.888 197.321 306.466 197.321 305.946C197.322 305.426 196.902 305.005 196.383 305.005C195.864 305.006 195.443 305.428 195.443 305.948C195.443 306.467 195.863 306.889 196.381 306.888Z" fill="white"/>
<path d="M212.496 306.875C213.015 306.874 213.435 306.453 213.436 305.933C213.436 305.413 213.016 304.992 212.498 304.992C211.979 304.993 211.558 305.414 211.558 305.934C211.557 306.454 211.977 306.875 212.496 306.875Z" fill="white"/>
<path d="M180.857 167.696L179.447 169.11L178.038 169.111L178.039 168.169L178.821 168.169L180.701 166.284L181.64 166.283L181.63 178.053L180.691 178.054L180.7 167.696L180.857 167.696Z" fill="white"/>
<path d="M184.454 166.28L192.278 166.273L192.277 168.157L187.262 177.107L187.261 178.048L186.322 178.049L186.323 176.637L191.181 167.844L191.182 167.373L184.297 167.379L184.298 166.28L184.454 166.28Z" fill="white"/>
<path d="M195.256 166.271L202.141 166.265L202.14 167.207L196.35 167.212L196.348 170.194L200.729 170.19L202.761 172.072L202.758 175.995L200.879 177.88L196.967 177.883L195.091 176.002L195.874 175.216L197.594 176.941L200.567 176.939L201.976 175.525L201.979 172.543L200.572 171.132L196.66 171.135L196.033 171.763L195.251 171.136L195.721 170.665L195.725 166.271L195.256 166.271Z" fill="white"/>
<path d="M205.111 168.146L206.991 166.261L210.902 166.258L212.935 168.139L212.152 168.925L210.432 167.2L207.616 167.202L206.05 168.616L206.047 171.598L206.987 170.655L210.899 170.652L212.931 172.534L212.928 175.986L210.892 178.028L206.98 178.032L205.104 175.993L205.111 168.146ZM207.607 177.09L210.58 177.087L211.99 175.673L211.992 173.162L210.585 171.751L207.612 171.754L206.202 173.167L206.2 175.521L207.607 177.09Z" fill="white"/>
<path d="M177.862 193.755L179.271 192.341L178.334 190.929L178.335 189.046L180.215 187.161L183.188 187.159L185.064 189.04L185.062 190.924L184.122 192.337L185.529 193.748L185.527 196.73L183.491 198.772L179.579 198.775L177.703 196.737L177.862 193.755ZM178.798 196.265L180.205 197.676L183.179 197.674L184.588 196.26L184.59 194.22L183.339 192.808L180.366 192.811L178.8 194.225L178.798 196.265ZM179.273 190.301L180.211 191.713L183.184 191.71L184.124 190.297L184.125 189.355L182.718 187.944L180.84 187.945L179.43 189.359L179.429 190.301L179.273 190.301Z" fill="white"/>
<path d="M188.194 186.836L196.018 186.83L196.016 188.713L191.158 197.506L191.157 198.448L190.218 198.448L190.219 197.036L195.078 188.243L195.078 187.772L188.193 187.778L188.194 186.836Z" fill="white"/>
<path d="M198.673 188.867L200.553 186.982L204.464 186.979L206.497 188.86L205.714 189.646L203.994 187.921L201.178 187.923L199.612 189.337L199.609 192.319L200.705 191.22L204.617 191.216L206.65 193.098L206.647 196.551L204.611 198.593L200.699 198.596L198.823 196.557L198.83 188.867L198.673 188.867ZM201.169 197.654L204.142 197.651L205.552 196.238L205.554 193.726L204.147 192.315L201.174 192.318L199.764 193.731L199.762 196.243L201.169 197.654Z" fill="white"/>
<path d="M211.976 188.385L210.566 189.799L209.157 189.8L209.158 188.858L210.097 188.858L211.977 186.973L212.916 186.972L212.906 198.743L211.967 198.743L211.976 188.385Z" fill="white"/>
<path d="M177.84 214.471L182.696 208.503L182.697 207.561L183.636 207.56L183.629 215.408L185.507 215.406L185.506 216.348L183.628 216.349L183.626 219.331L182.687 219.332L182.689 216.35L177.839 216.354L177.84 214.471ZM178.779 214.941L178.778 215.412L182.69 215.408L182.695 210.072L178.779 214.941Z" fill="white"/>
<path d="M189.265 215.403L189.264 216.815L190.671 218.227L193.644 218.224L195.053 216.81L195.055 214.77L193.648 213.359L191.144 213.361L191.145 212.419L193.649 212.417L194.589 211.004L194.59 210.062L193.183 208.494L190.679 208.496L189.27 209.91L189.268 211.322L188.173 211.323L188.175 209.44L190.054 207.555L193.497 207.552L195.373 209.434L195.371 211.317L194.431 212.73L195.838 214.142L195.835 217.124L193.799 219.166L189.887 219.169L188.168 217.287L188.169 215.404L189.265 215.403Z" fill="white"/>
<path d="M201.632 208.957L200.222 210.371L198.813 210.372L198.814 209.43L199.753 209.429L201.633 207.544L202.572 207.544L202.562 219.314L201.623 219.315L201.632 208.957Z" fill="white"/>
<path d="M212.893 217.26L211.014 219.144L207.102 219.148L205.069 217.266L205.852 216.481L207.572 218.206L210.389 218.203L211.955 216.79L211.957 213.808L211.017 214.75L207.105 214.753L205.073 212.872L205.076 209.419L207.112 207.377L211.024 207.374L212.9 209.412L212.893 217.26ZM210.553 208.473L207.58 208.475L206.171 209.889L206.169 212.4L207.576 213.811L210.549 213.809L211.958 212.395L211.96 209.884L210.553 208.473Z" fill="white"/>
<path d="M175.79 235.026L177.199 233.612L176.262 232.2L176.263 230.317L178.143 228.432L181.116 228.43L182.992 230.311L182.99 232.195L182.05 233.608L183.457 235.019L183.455 238.001L181.419 240.043L177.507 240.046L175.631 238.008L175.79 235.026ZM176.883 237.536L178.29 238.947L181.263 238.945L182.673 237.531L182.675 235.491L181.267 234.079L178.294 234.082L176.728 235.496L176.727 237.536L176.883 237.536ZM177.358 231.572L178.295 232.983L181.268 232.981L182.208 231.568L182.209 230.626L180.802 229.215L178.768 229.216L177.359 230.63L177.358 231.572Z" fill="white"/>
<path d="M194.095 237.996L192.215 239.881L188.303 239.884L186.271 238.002L187.054 237.217L188.774 238.942L191.59 238.939L193.156 237.526L193.159 234.544L192.219 235.486L188.307 235.49L186.275 233.608L186.278 230.155L188.313 228.113L192.225 228.11L194.101 230.149L194.095 237.996ZM191.599 229.209L188.626 229.212L187.216 230.625L187.214 233.136L188.621 234.548L191.594 234.545L193.003 233.131L193.006 230.62L191.599 229.209Z" fill="white"/>
<path d="M203.49 231.553L203.491 230.612L202.084 229.2L199.111 229.203L197.701 230.617L197.7 232.029L196.761 232.03L196.763 230.147L198.642 228.262L202.554 228.258L204.586 230.297L204.585 232.337L197.694 238.778L197.694 239.248L204.579 239.242L204.578 240.184L196.754 240.191L196.756 238.151L203.49 231.553Z" fill="white"/>
<path d="M213.972 231.544L213.973 230.602L212.566 229.191L209.593 229.193L208.183 230.607L208.182 232.019L207.243 232.02L207.245 230.137L209.124 228.252L213.036 228.249L215.069 230.287L215.067 232.327L208.176 238.768L208.176 239.239L215.061 239.233L215.06 240.175L207.236 240.181L207.238 238.141L213.972 231.544Z" fill="white"/>
<path fill-rule="evenodd" clip-rule="evenodd" d="M465.994 122.88L465.989 128.373C465.989 128.687 465.832 129.001 465.676 129.158C465.519 129.315 465.206 129.472 464.893 129.472L455.348 129.48L455.191 129.481C455.035 129.481 455.035 129.481 454.878 129.481C454.722 129.481 454.565 129.481 454.566 129.324C454.409 129.167 454.409 129.01 454.41 128.853L454.415 122.733C454.415 122.419 454.572 122.262 454.728 122.105C454.885 121.948 455.041 121.947 455.354 121.947C455.511 121.947 455.824 121.947 455.98 122.104C456.137 122.26 456.293 122.417 456.293 122.731L456.289 127.125C456.289 127.439 456.601 127.596 456.758 127.596L459.105 127.594C459.418 127.594 459.575 127.437 459.575 127.123L459.578 123.827C459.578 123.67 459.578 123.513 459.578 123.513C459.578 123.356 459.735 123.356 459.735 123.199C459.891 123.042 459.891 123.042 460.048 123.042C460.204 123.042 460.361 123.041 460.517 123.041C460.674 123.041 460.83 123.198 460.986 123.355C461.143 123.512 461.143 123.669 461.142 123.826L461.14 127.121C461.139 127.435 461.452 127.592 461.609 127.592L463.799 127.59C464.112 127.59 464.269 127.276 464.269 127.119L464.273 122.881C464.273 122.724 464.273 122.567 464.273 122.567C464.273 122.41 464.43 122.41 464.43 122.253C464.43 122.096 464.586 122.096 464.743 122.096C464.899 122.096 465.056 121.939 465.056 121.939C465.369 121.939 465.525 122.095 465.682 122.252C465.838 122.409 465.994 122.723 465.994 122.88Z" fill="white"/>
<path fill-rule="evenodd" clip-rule="evenodd" d="M465.977 142.966C465.976 143.28 465.82 143.437 465.663 143.594C465.507 143.751 465.194 143.751 465.037 143.751L455.335 143.76L455.179 143.76C455.023 143.76 455.023 143.76 454.866 143.76C454.71 143.76 454.553 143.76 454.553 143.604C454.397 143.447 454.397 143.29 454.397 143.133L454.403 136.384C454.403 136.384 454.403 136.227 454.403 136.07C454.403 135.913 454.403 135.913 454.56 135.756C454.56 135.599 454.717 135.599 454.873 135.599C455.03 135.599 455.186 135.442 455.343 135.442C455.499 135.442 455.656 135.442 455.656 135.442C455.812 135.441 455.812 135.598 455.968 135.598C455.812 136.069 455.812 136.069 455.811 136.226C455.811 136.383 455.811 136.383 455.811 136.54L455.807 141.719C455.807 141.876 455.963 142.033 456.119 142.033L459.249 142.03L459.251 139.205C459.251 139.048 459.251 139.048 459.252 138.891C459.252 138.734 459.408 138.734 459.408 138.577C459.409 138.42 459.565 138.42 459.721 138.42C459.878 138.42 459.878 138.263 460.035 138.263C460.191 138.263 460.347 138.262 460.347 138.262C460.504 138.262 460.504 138.419 460.66 138.419C460.66 138.576 460.817 138.576 460.817 138.733C460.816 138.89 460.816 138.89 460.816 139.047L460.814 141.401C460.814 141.715 461.127 141.871 461.283 141.871L464.569 141.869C464.726 141.868 464.726 141.868 464.882 141.868C465.039 141.868 465.039 142.025 465.195 142.025C465.352 142.025 465.351 142.182 465.351 142.339C465.977 142.652 465.977 142.809 465.977 142.966Z" fill="white"/>
<path fill-rule="evenodd" clip-rule="evenodd" d="M455.739 221.605L455.268 222.547L454.171 224.431L453.858 224.902C453.545 225.53 453.544 226.315 453.856 226.943L456.044 230.707C456.356 231.335 457.138 231.805 457.764 231.805L461.989 231.801C462.771 231.8 463.398 231.329 463.711 230.701L464.808 228.817C464.965 228.503 464.809 228.189 464.653 227.718L463.871 226.463L462.461 228.976C462.147 229.447 461.834 229.604 461.365 229.604L458.392 229.607C457.922 229.607 457.453 229.294 457.297 228.98L455.735 226.313C455.579 225.843 455.579 225.372 455.736 224.901L455.893 224.587L456.833 223.017C456.833 223.017 456.833 223.017 456.833 222.86C456.833 222.703 456.833 222.546 456.833 222.389L456.208 221.291C456.365 221.291 455.895 221.291 455.739 221.605Z" fill="white"/>
<path fill-rule="evenodd" clip-rule="evenodd" d="M461.683 220.344C461.37 220.345 461.214 220.659 461.37 220.972L463.401 224.423L465.12 227.247C465.433 227.717 465.432 228.031 465.119 228.502L465.902 227.089C466.216 226.461 466.217 225.677 465.904 224.892C465.905 224.735 465.748 224.735 465.748 224.578L464.967 223.323L464.654 222.853L464.498 222.539L463.561 220.971C463.404 220.657 462.935 220.5 462.622 220.501L461.683 220.344Z" fill="white"/>
<path fill-rule="evenodd" clip-rule="evenodd" d="M465.944 182.517C465.944 182.831 465.787 182.988 465.631 183.145C465.474 183.302 465.317 183.459 465.004 183.459L460.779 183.463L455.769 187.548C455.612 187.705 455.456 187.705 455.143 187.705C454.986 187.705 454.673 187.705 454.517 187.392C454.361 187.235 454.361 187.235 454.361 187.078C454.204 186.921 454.205 186.607 454.361 186.45C454.361 186.293 454.518 186.293 454.518 186.136L458.746 182.68C459.059 182.366 459.216 182.209 458.903 182.052L454.524 178.76C454.368 178.603 454.368 178.603 454.368 178.446C454.212 178.289 454.212 177.975 454.369 177.818C454.369 177.661 454.525 177.661 454.526 177.504C454.682 177.347 454.839 177.19 455.152 177.19C455.308 177.19 455.621 177.189 455.777 177.346L460.781 181.422L465.006 181.419C465.319 181.419 465.632 181.575 465.788 181.732C465.788 182.046 465.944 182.203 465.944 182.517Z" fill="white"/>
<path fill-rule="evenodd" clip-rule="evenodd" d="M465.919 210.924C465.919 211.081 465.919 211.238 465.762 211.395C465.762 211.552 465.606 211.552 465.606 211.709C465.449 211.709 465.449 211.866 465.292 211.866C465.136 211.866 465.136 211.866 464.98 211.866L455.121 211.875L454.965 211.875C454.809 211.875 454.809 211.875 454.652 211.875C454.496 211.875 454.339 211.875 454.339 211.718C454.339 211.561 454.183 211.405 454.183 211.248C454.183 210.934 454.184 210.62 454.34 210.463C454.497 210.306 454.654 210.149 454.966 210.149L464.825 210.14C464.981 210.14 464.981 210.14 465.137 210.14C465.294 210.14 465.294 210.297 465.45 210.297C465.607 210.296 465.607 210.453 465.607 210.61C465.919 210.61 465.919 210.767 465.919 210.924Z" fill="white"/>
<path fill-rule="evenodd" clip-rule="evenodd" d="M465.969 153.636C465.969 153.793 465.969 153.95 465.812 154.107C465.812 154.264 465.656 154.264 465.655 154.421C465.499 154.421 465.499 154.578 465.342 154.578C465.186 154.579 465.186 154.579 465.029 154.579L455.171 154.587L455.015 154.587C454.858 154.587 454.858 154.587 454.702 154.588C454.545 154.588 454.389 154.588 454.389 154.431C454.389 154.274 454.233 154.117 454.233 153.96C454.233 153.647 454.233 153.333 454.39 153.176C454.547 153.019 454.703 152.862 455.016 152.861L464.874 152.853C465.031 152.853 465.031 152.853 465.187 152.853C465.344 152.852 465.344 153.009 465.5 153.009C465.657 153.009 465.656 153.166 465.656 153.323C465.969 153.323 465.969 153.48 465.969 153.636Z" fill="white"/>
<path d="M465.93 198.215C465.93 198.529 465.773 198.686 465.617 198.843C465.46 199 465.304 199.157 464.991 199.157L456.384 199.165C456.228 199.165 456.071 199.322 456.071 199.479L456.069 202.147C456.069 202.461 455.912 202.618 455.755 202.775C455.599 202.932 455.442 203.089 455.129 203.089C454.973 203.09 454.66 202.933 454.504 202.776C454.347 202.619 454.191 202.306 454.191 202.149L454.198 194.302C454.198 193.988 454.198 193.831 454.355 193.674C454.512 193.517 454.668 193.359 454.981 193.359C455.294 193.359 455.45 193.516 455.607 193.673C455.763 193.829 455.919 194.143 455.919 194.3L455.917 196.968C455.917 197.125 456.073 197.282 456.23 197.282L464.836 197.274C465.149 197.274 465.305 197.431 465.461 197.588C465.774 197.744 465.931 197.901 465.93 198.215Z" fill="white"/>
<path fill-rule="evenodd" clip-rule="evenodd" d="M464.233 168.707L464.238 162.587L464.233 168.707C464.232 169.021 464.076 169.335 463.919 169.492C463.762 169.492 463.293 169.493 463.293 169.493C463.606 169.179 463.606 169.179 463.607 168.708L463.607 167.766L455.471 167.773C455.001 167.774 454.688 167.931 454.532 168.088C454.375 168.245 454.218 168.559 454.218 168.873C454.218 169.187 454.217 169.344 454.374 169.344C454.53 169.5 454.53 169.5 454.687 169.5C454.843 169.5 454.843 169.5 455 169.5C455 169.5 455.156 169.5 455 169.5L464.701 169.492C465.171 169.491 465.484 169.334 465.64 169.177C465.797 169.02 465.954 168.706 465.954 168.392L465.959 162.585C465.959 162.428 465.96 162.114 465.803 161.957C465.647 161.801 465.49 161.644 465.178 161.644C465.021 161.644 464.865 161.644 464.864 161.801C464.708 161.801 464.708 161.958 464.551 161.959C464.551 162.115 464.395 162.116 464.395 162.273C464.394 162.43 464.394 162.43 464.394 162.586" fill="white"/>
<path fill-rule="evenodd" clip-rule="evenodd" d="M444.911 257.709C444.903 266.341 451.782 273.24 460.389 273.233C468.995 273.225 475.886 266.314 475.893 257.682C475.901 249.05 469.022 242.151 460.416 242.158C451.809 242.165 444.918 249.234 444.911 257.709ZM467.911 259.572L465.411 255.494L462.443 250.474C462.13 250.161 462.443 249.533 462.913 249.532L464.165 249.531C464.791 249.531 465.26 249.844 465.572 250.315L466.979 252.511L467.291 253.138L467.76 253.922L468.854 255.648C469.01 255.805 469.01 255.962 469.166 256.275C469.635 257.217 469.634 258.315 469.163 259.414L468.223 261.141L468.38 260.984L468.066 261.455L468.066 261.612L467.753 262.083C467.753 261.926 467.753 262.24 467.753 262.083L466.186 264.753C465.715 265.695 464.62 266.324 463.524 266.325L457.265 266.33C456.17 266.331 455.231 265.704 454.606 264.763L451.481 259.429C451.013 258.488 451.014 257.39 451.484 256.448L451.798 255.819L453.365 253.15L454.148 251.894C454.305 251.58 454.931 251.579 455.087 251.893L456.024 253.462C456.181 253.618 456.181 253.932 456.024 254.089L456.024 254.246L454.77 256.602L454.613 256.916C454.3 257.544 454.299 258.171 454.611 258.956L456.799 262.721C457.111 263.348 457.737 263.661 458.519 263.661L462.901 263.657C463.527 263.656 464.309 263.342 464.623 262.714L466.817 258.945" fill="white"/>
<path fill-rule="evenodd" clip-rule="evenodd" d="M466.502 258.474L467.596 260.199C467.909 260.67 467.908 261.297 467.751 261.768L468.065 261.297C468.378 260.669 468.379 260.042 467.91 259.415" fill="white"/>
<path d="M122.055 212.635L122.053 215.146L120.801 215.147L120.807 208.869L122.058 208.868L122.056 211.379L128.472 211.374L128.471 212.786L122.055 212.792L122.055 212.635Z" fill="white"/>
<path d="M120.81 205.885L120.814 200.235L122.066 200.234L122.062 204.628L124.097 204.626L124.1 200.703L125.352 200.702L125.348 204.625L127.383 204.624L127.387 200.229L128.638 200.228L128.633 206.035L120.809 206.042L120.81 205.885Z" fill="white"/>
<path d="M120.82 194.27L120.821 193.014L128.491 189.555L128.49 190.967L126.611 191.754L126.608 195.363L128.485 196.147L128.484 197.559L120.82 194.27ZM125.516 192.382L122.385 193.641L125.513 194.894L125.516 192.382Z" fill="white"/>
<path d="M120.827 186.738L120.828 185.325L124.429 182.968L120.832 180.617L120.833 179.205L128.501 179.198L128.5 180.61L123.023 180.615L126.62 182.966L123.019 185.323L128.496 185.319L128.495 186.574L120.827 186.581L120.827 186.738Z" fill="white"/>
<ellipse rx="27.8633" ry="27.8438" transform="matrix(1 -0.000862226 -0.000863435 1 299.938 197.705)" fill="white"/>
<path fill-rule="evenodd" clip-rule="evenodd" d="M299.405 155.366C276.938 155.385 258.727 173.583 258.708 196.035C258.688 218.488 276.867 236.654 299.335 236.635C321.803 236.615 340.014 218.417 340.033 195.965C340.053 173.542 321.873 155.347 299.405 155.366ZM318.997 209.613L313.278 213.209L313.079 213.322L311.636 214.229L309.795 215.39L305.124 218.221C304.643 218.504 304.161 218.759 303.68 218.986C301.189 220.345 298.189 220.376 295.672 219.021L291.288 216.593L291.854 216.904C291.825 216.904 291.797 216.875 291.769 216.875L290.383 216.085L290.044 215.887L288.445 214.965L281.757 211.2C279.296 209.789 277.77 207.16 277.773 204.304L277.787 188.017C277.789 185.189 279.319 182.558 281.783 181.113L295.91 172.957C298.373 171.541 301.401 171.539 303.861 172.951L305.473 173.882L312.431 177.835C312.459 177.835 312.459 177.863 312.488 177.863L315.825 179.755C316.815 180.32 316.842 181.762 315.851 182.328L311.887 184.65C311.35 184.962 310.699 184.991 310.133 184.737C310.105 184.737 310.076 184.709 310.02 184.709C309.992 184.709 309.963 184.709 309.963 184.68C309.822 184.624 309.68 184.596 309.539 184.511L303.543 181.066L302.61 180.53C301.054 179.768 299.158 179.515 297.431 180.365L287.494 186.114C285.909 187.02 284.945 188.717 284.944 190.527L284.934 201.838C284.932 203.676 285.893 205.343 287.477 206.247L297.376 211.894L292.846 214.641C291.487 215.462 290.129 215.633 288.743 215.125L288.799 215.153L290.044 215.859C291.656 216.678 293.212 216.563 294.798 215.6L305.443 209.144L318.495 201.243C319.486 200.621 320.787 201.298 320.814 202.486L320.924 205.907C320.979 207.434 320.243 208.82 318.997 209.613Z" fill="#191B26"/>
<path fill-rule="evenodd" clip-rule="evenodd" d="M290.383 216.113L291.29 216.622L290.383 216.113Z" fill="#1B2741"/>
</g>
<defs>
<filter id="filter0_d" x="0.791504" y="0.00732422" width="603.981" height="471.984" filterUnits="userSpaceOnUse" color-interpolation-filters="sRGB">
<feFlood flood-opacity="0" result="BackgroundImageFix"/>
<feColorMatrix in="SourceAlpha" type="matrix" values="0 0 0 0 0 0 0 0 0 0 0 0 0 0 0 0 0 0 127 0"/>
<feOffset dy="40"/>
<feGaussianBlur stdDeviation="52"/>
<feColorMatrix type="matrix" values="0 0 0 0 0.231373 0 0 0 0 0.243137 0 0 0 0 0.356863 0 0 0 0.2 0"/>
<feBlend mode="normal" in2="BackgroundImageFix" result="effect1_dropShadow"/>
<feBlend mode="normal" in="SourceGraphic" in2="effect1_dropShadow" result="shape"/>
</filter>
<linearGradient id="paint0_linear" x1="113.51" y1="82.3576" x2="471.774" y2="320.13" gradientUnits="userSpaceOnUse">
<stop stop-color="#11102B"/>
<stop offset="1" stop-color="#37364D"/>
</linearGradient>
</defs>
</svg>
