<svg width="152" height="31" viewBox="0 0 152 31" fill="none" xmlns="http://www.w3.org/2000/svg">
<path fill-rule="evenodd" clip-rule="evenodd" d="M150.213 21.231H144.658C144.289 21.231 144.01 21.1275 143.826 20.9235C143.643 20.7195 143.557 20.4473 143.557 20.0996V10.3798C143.55 10.3032 143.537 10.2274 143.517 10.1532C143.49 10.0528 143.476 9.94953 143.476 9.84571C143.474 9.78214 143.486 9.71898 143.511 9.66029C143.535 9.6016 143.572 9.54868 143.618 9.50489C143.712 9.41612 143.863 9.37444 144.094 9.37444H150.25C150.551 9.37444 150.784 9.46663 150.942 9.64906C151.089 9.80852 151.171 10.0169 151.173 10.2336C151.172 10.4489 151.092 10.6565 150.949 10.8172C150.793 11.0006 150.564 11.0933 150.268 11.0933H145.849C145.707 11.0941 145.571 11.1508 145.471 11.2513C145.37 11.3517 145.314 11.4878 145.313 11.6298V13.9994C145.313 14.1231 145.362 14.2417 145.45 14.3291C145.537 14.4165 145.656 14.4657 145.78 14.4658H149.102C149.228 14.4655 149.352 14.4906 149.468 14.5396C149.584 14.5887 149.689 14.6607 149.776 14.7512C149.865 14.8446 149.929 14.9595 149.961 15.0847C149.995 15.2212 149.994 15.3642 149.957 15.5001C149.922 15.6866 149.818 15.853 149.666 15.966C149.508 16.0827 149.316 16.1436 149.12 16.1391H145.851C145.708 16.1391 145.57 16.1959 145.469 16.2971C145.368 16.3983 145.311 16.5355 145.311 16.6785V18.9383C145.311 19.0814 145.368 19.2186 145.469 19.3198C145.57 19.4209 145.708 19.4778 145.851 19.4778H150.186C150.31 19.4772 150.434 19.4927 150.554 19.5239C150.673 19.5549 150.784 19.609 150.882 19.6832C150.978 19.7574 151.057 19.8516 151.113 19.9593C151.173 20.0827 151.202 20.2185 151.199 20.3556C151.199 20.6381 151.094 20.8602 150.885 21.0152C150.691 21.1592 150.454 21.2351 150.213 21.231Z" fill="white"/>
<path fill-rule="evenodd" clip-rule="evenodd" d="M129.894 21.2442C129.611 21.2442 129.386 21.1397 129.229 20.9343C129.085 20.7506 129.008 20.5237 129.008 20.2904V10.3547C129.001 10.2782 128.988 10.2024 128.968 10.1282C128.941 10.0273 128.927 9.92354 128.926 9.81922C128.925 9.7552 128.937 9.69158 128.961 9.63245C128.986 9.57332 129.023 9.52 129.069 9.47594C129.163 9.38668 129.314 9.345 129.547 9.345H136.446C136.531 9.34636 136.616 9.3589 136.697 9.38227C136.795 9.40915 136.888 9.4517 136.973 9.50831C137.069 9.57388 137.149 9.65957 137.208 9.75939C137.278 9.88173 137.313 10.0211 137.309 10.162C137.31 10.2847 137.288 10.4066 137.242 10.5205C137.198 10.6268 137.134 10.7233 137.052 10.8044C136.973 10.8848 136.878 10.9491 136.774 10.9937C136.67 11.0384 136.559 11.0614 136.446 11.0614H131.162C131.058 11.0614 130.958 11.1028 130.885 11.1763C130.811 11.2499 130.77 11.3497 130.77 11.4537V14.6948H133.678C133.778 14.6959 133.877 14.7124 133.972 14.7439C134.076 14.7772 134.173 14.831 134.256 14.9023C134.339 14.976 134.409 15.0642 134.462 15.1627C134.521 15.2795 134.551 15.4092 134.549 15.5403C134.551 15.6643 134.527 15.7873 134.477 15.9013C134.428 16.0152 134.356 16.1175 134.264 16.2014C134.182 16.2774 134.086 16.3374 133.981 16.3784C133.885 16.4178 133.781 16.4386 133.676 16.4397H131.306C131.163 16.4397 131.026 16.4965 130.924 16.5977C130.823 16.6989 130.766 16.8361 130.766 16.9791V20.2918C130.766 20.4062 130.748 20.5199 130.713 20.6287C130.677 20.74 130.621 20.8438 130.548 20.9347C130.472 21.0283 130.378 21.105 130.271 21.1598C130.154 21.2171 130.025 21.246 129.894 21.2442Z" fill="white"/>
<path fill-rule="evenodd" clip-rule="evenodd" d="M50.2087 10.9938L49.3259 10.4936C49.3222 10.4903 49.3183 10.4872 49.3142 10.4843L47.4683 9.43482L47.0411 9.18962C46.7206 9.00454 46.3569 8.90711 45.9868 8.90711C45.6166 8.90711 45.253 9.00454 44.9324 9.18962L41.1911 11.3474C40.8701 11.5325 40.6036 11.7989 40.4183 12.1197C40.233 12.4406 40.1356 12.8046 40.1357 13.1751V17.4946C40.1356 17.8651 40.233 18.2292 40.4183 18.55C40.6036 18.8709 40.8701 19.1373 41.1911 19.3224L43.0846 20.3929C43.4381 20.5072 43.7839 20.4537 44.133 20.2419L45.3345 19.5117L42.7099 18.0096C42.5038 17.8907 42.3327 17.7196 42.2138 17.5136C42.0948 17.3076 42.0321 17.0739 42.0321 16.836V13.8342C42.0321 13.5963 42.0947 13.3626 42.2137 13.1566C42.3327 12.9506 42.5038 12.7796 42.7099 12.6607L45.3419 11.1405C45.795 10.9188 46.2987 10.984 46.7116 11.1895L46.9568 11.3307L48.5491 12.2488C48.5849 12.2676 48.6223 12.283 48.6609 12.2949C48.6658 12.2978 48.6717 12.2988 48.6776 12.3012C48.6835 12.3037 48.6948 12.3096 48.7041 12.312C48.7771 12.3458 48.8571 12.3615 48.9374 12.3578C49.0177 12.3542 49.096 12.3312 49.1656 12.2909L50.2146 11.6755C50.2744 11.6407 50.324 11.5907 50.3582 11.5305C50.3925 11.4703 50.4102 11.4022 50.4096 11.3329C50.409 11.2637 50.3901 11.1959 50.3548 11.1363C50.3195 11.0767 50.2691 11.0276 50.2087 10.9938Z" fill="white"/>
<path fill-rule="evenodd" clip-rule="evenodd" d="M51.5425 17.0188C51.54 16.948 51.519 16.8792 51.4814 16.8191C51.4439 16.7591 51.3912 16.71 51.3287 16.6768C51.2661 16.6436 51.1959 16.6274 51.1252 16.6299C51.0544 16.6325 50.9856 16.6536 50.9256 16.6912L47.4667 18.7877L44.6464 20.5041C44.2281 20.7581 43.8152 20.7881 43.3875 20.5703C43.3875 20.5703 43.3846 20.5703 43.3875 20.5703L44.8803 21.3937C45.2118 21.5751 45.5842 21.6684 45.962 21.6646C46.3399 21.6609 46.7104 21.5601 47.0381 21.3721C47.158 21.3175 47.2743 21.2553 47.3863 21.1858L48.6153 20.4247V20.4271L49.1057 20.1211L49.4896 19.8833L49.5426 19.8494L51.0629 18.8995C51.2263 18.7974 51.36 18.654 51.4505 18.4838C51.5409 18.3136 51.585 18.1226 51.5783 17.93L51.5425 17.0188Z" fill="white"/>
<path fill-rule="evenodd" clip-rule="evenodd" d="M89.8616 21.2392C89.7444 21.2421 89.6278 21.2206 89.5194 21.1761C89.4109 21.1316 89.3128 21.0651 89.2314 20.9808C89.1499 20.8991 89.0857 20.8019 89.0426 20.6949C88.9995 20.5879 88.9783 20.4733 88.9803 20.358V15.9934L84.7766 10.827C84.6298 10.6563 84.5461 10.4404 84.5397 10.2154C84.5351 10.0998 84.5559 9.98449 84.6006 9.87773C84.6453 9.77098 84.7129 9.67532 84.7986 9.5975C84.8838 9.51089 84.9869 9.44394 85.1007 9.40134C85.3157 9.31886 85.5542 9.32167 85.7672 9.40919C85.8755 9.4558 85.9712 9.52759 86.0462 9.61859L89.56 13.9896C89.8331 14.3329 89.992 14.4192 90.2652 14.0744L93.6563 9.62202C93.7319 9.52948 93.8286 9.45648 93.9383 9.40919C94.151 9.32193 94.3891 9.31912 94.6038 9.40134C94.7678 9.46376 94.9092 9.57427 95.0094 9.71839C95.1096 9.86251 95.1639 10.0335 95.1653 10.209C95.1663 10.4362 95.0849 10.6561 94.9363 10.8279L90.7428 15.9502V20.2923C90.7428 20.5939 90.63 20.8636 90.4319 21.0328C90.2738 21.1693 90.071 21.243 89.8621 21.2397" fill="white"/>
<path fill-rule="evenodd" clip-rule="evenodd" d="M61.0745 21.2393C60.9353 21.2418 60.7979 21.208 60.6758 21.1412C60.5703 21.0824 60.4771 21.004 60.4011 20.9102C60.3286 20.8197 60.2742 20.7162 60.2408 20.6052C60.2098 20.5077 60.1933 20.4063 60.1917 20.3041V10.2684C60.1918 10.2051 60.1832 10.1421 60.1662 10.0811C60.1412 9.99434 60.1283 9.90455 60.128 9.81429C60.1269 9.74629 60.1422 9.67904 60.1727 9.61824C60.2032 9.55745 60.2479 9.50492 60.3031 9.46512C60.4075 9.38763 60.5796 9.35085 60.8464 9.35085C61.149 9.35085 61.4035 9.41461 61.6017 9.53917C61.8214 9.67795 61.94 9.91139 61.9547 10.2336V20.3036C61.954 20.4145 61.9361 20.5247 61.9018 20.6302C61.8663 20.7415 61.8097 20.8449 61.735 20.9347C61.6582 21.0264 61.563 21.1009 61.4555 21.1534C61.3366 21.2115 61.2058 21.2407 61.0735 21.2388" fill="white"/>
<path fill-rule="evenodd" clip-rule="evenodd" d="M119.138 21.2393C118.999 21.2418 118.862 21.208 118.74 21.1412C118.634 21.0824 118.541 21.004 118.465 20.9102C118.393 20.8197 118.338 20.7162 118.305 20.6052C118.274 20.5077 118.257 20.4063 118.256 20.3041V10.2684C118.256 10.2051 118.247 10.1421 118.23 10.0811C118.205 9.99434 118.192 9.90455 118.192 9.81429C118.191 9.74629 118.206 9.67904 118.237 9.61824C118.267 9.55745 118.312 9.50492 118.367 9.46512C118.471 9.38763 118.644 9.35085 118.91 9.35085C119.213 9.35085 119.467 9.41461 119.666 9.53917C119.885 9.67795 120.004 9.91139 120.019 10.2336V20.3036C120.018 20.4145 120 20.5247 119.966 20.6302C119.93 20.7414 119.874 20.8448 119.799 20.9347C119.722 21.0264 119.627 21.1009 119.519 21.1534C119.401 21.2115 119.27 21.2407 119.137 21.2388" fill="white"/>
<path d="M73.9586 21.2153C73.8395 21.2195 73.7209 21.1987 73.6104 21.1541C73.4999 21.1096 73.4 21.0424 73.3171 20.9569C73.2363 20.872 73.173 20.772 73.1309 20.6626C73.0888 20.5532 73.0688 20.4365 73.0719 20.3193L73.0631 11.5411C73.0629 11.4409 73.0229 11.345 72.9521 11.2742C72.8812 11.2034 72.7852 11.1636 72.685 11.1635H69.9387C69.6939 11.1695 69.4556 11.0842 69.2703 10.9241C69.1777 10.8425 69.1044 10.7414 69.0556 10.628C69.0068 10.5146 68.9839 10.3918 68.9883 10.2685C68.9884 10.1521 69.0118 10.0369 69.0572 9.92976C69.1026 9.82261 69.1691 9.72566 69.2527 9.64468C69.3422 9.5546 69.4495 9.484 69.5676 9.43733C69.6858 9.39066 69.8123 9.36893 69.9392 9.37349H77.9328C78.1813 9.36587 78.4245 9.44629 78.6194 9.60055C78.8126 9.75944 78.9102 9.98404 78.9102 10.2685C78.9147 10.3911 78.8922 10.5132 78.8444 10.6262C78.7966 10.7392 78.7247 10.8404 78.6336 10.9227C78.4546 11.0825 78.2251 11.1635 77.9505 11.1635H75.2302C75.1301 11.1644 75.0345 11.2049 74.9642 11.2761C74.8939 11.3473 74.8547 11.4435 74.8551 11.5435L74.8457 20.3218C74.8446 20.5545 74.7572 20.7785 74.6005 20.9505C74.5192 21.0386 74.4196 21.1079 74.3087 21.1536C74.1979 21.1994 74.0784 21.2204 73.9586 21.2153Z" fill="white"/>
<path fill-rule="evenodd" clip-rule="evenodd" d="M103.871 19.4708C103.55 19.4708 103.302 19.3546 103.119 19.1202C103.043 19.0309 103.045 18.7117 103.045 18.7117C103.305 19.0702 103.438 19.0501 103.803 19.0511L104.802 19.054V10.5567C104.802 10.1193 104.709 9.81673 104.516 9.63135C104.324 9.44598 104.052 9.35917 103.696 9.35917C103.429 9.35917 103.257 9.39547 103.153 9.47344C103.098 9.51322 103.054 9.56569 103.023 9.62639C102.993 9.68709 102.977 9.75424 102.979 9.82212C102.979 9.91223 102.992 10.0018 103.017 10.0884C103.034 10.1493 103.042 10.2121 103.042 10.2753V20.0789C103.042 20.4051 103.146 20.6797 103.35 20.894C103.555 21.1083 103.826 21.224 104.158 21.2309H110.117C110.335 21.23 110.545 21.1476 110.705 20.9999C110.887 20.8415 110.979 20.6199 110.979 20.3418C110.981 20.2103 110.951 20.0803 110.893 19.9627C110.84 19.8601 110.769 19.7682 110.682 19.692C110.52 19.5516 110.313 19.4732 110.098 19.4708" fill="white"/>
<path fill-rule="evenodd" clip-rule="evenodd" d="M15.1846 1.2899e-06C6.7945 1.2899e-06 0 6.7945 0 15.1846C0 23.5747 6.7945 30.3692 15.1846 30.3692C23.5747 30.3692 30.3692 23.5747 30.3692 15.1846C30.3692 6.80507 23.5747 1.2899e-06 15.1846 1.2899e-06ZM22.518 20.2778L20.3835 21.6198L20.3095 21.6621L19.7706 22.0002L19.0838 22.4335L17.3402 23.4902C17.1606 23.5958 16.981 23.6909 16.8013 23.7755C15.8714 24.2827 14.7514 24.2932 13.8109 23.786L12.173 22.8773L12.3844 22.9935C12.3738 22.9935 12.3632 22.983 12.3527 22.983L11.8349 22.6871L11.7081 22.6131L11.111 22.2679L8.612 20.859C7.69269 20.3307 7.12207 19.348 7.12207 18.2807V12.1942C7.12207 11.1375 7.69269 10.1548 8.612 9.61586L13.8849 6.5726C14.8042 6.04425 15.9348 6.04425 16.8542 6.5726L17.4565 6.92131L20.0559 8.40067C20.0665 8.40067 20.0665 8.41123 20.0771 8.41123L21.324 9.11922C21.6938 9.33055 21.7044 9.86946 21.3345 10.0808L19.8552 10.9473C19.6544 11.0635 19.4114 11.0741 19.2 10.979C19.1894 10.979 19.1789 10.9684 19.1577 10.9684C19.1472 10.9684 19.1366 10.9684 19.1366 10.9579C19.0838 10.9367 19.0309 10.9262 18.9781 10.8944L16.7379 9.60529L16.3892 9.40452C15.808 9.11922 15.1001 9.02411 14.4555 9.34112L10.7465 11.4862C10.1548 11.8243 9.7955 12.4583 9.7955 13.1346V17.3614C9.7955 18.0482 10.1548 18.6717 10.7465 19.0098L14.4449 21.1232L12.7542 22.1482C12.247 22.4546 11.7398 22.518 11.222 22.3278L11.2432 22.3384L11.7081 22.6025C12.3104 22.909 12.8916 22.8667 13.4833 22.5075L17.4565 20.0982L22.3278 17.15C22.6977 16.9176 23.1837 17.1712 23.1943 17.615L23.2366 18.8936C23.2577 19.4642 22.983 19.982 22.518 20.2778Z" fill="white"/>
</svg>
